<mxfile host="drawio-plugin" modified="2023-08-09T07:58:27.640Z" agent="5.0 (Macintosh; Intel Mac OS X 10_15_7) AppleWebKit/537.36 (KHTML, like Gecko) Chrome/111.0.0.0 Safari/537.36" etag="FoLh6Q_PvYSvDFznnbwm" version="20.5.3" type="embed"><diagram id="GNyJFDGbRWxc6y4XjkAQ" name="Diagram"><mxGraphModel dx="1150" dy="485" grid="1" gridSize="10" guides="1" tooltips="1" connect="1" arrows="1" fold="1" page="1" pageScale="1" pageWidth="850" pageHeight="1100" math="0" shadow="0"><root><mxCell id="0"/><mxCell id="1" parent="0"/><mxCell id="7" style="edgeStyle=orthogonalEdgeStyle;rounded=0;orthogonalLoop=1;jettySize=auto;html=1;entryX=0;entryY=0.5;entryDx=0;entryDy=0;" parent="1" source="2" target="3" edge="1"><mxGeometry relative="1" as="geometry"/></mxCell><mxCell id="2" value="Producer" style="rounded=1;whiteSpace=wrap;html=1;" parent="1" vertex="1"><mxGeometry x="30" y="99" width="120" height="60" as="geometry"/></mxCell><mxCell id="8" style="edgeStyle=orthogonalEdgeStyle;rounded=0;orthogonalLoop=1;jettySize=auto;html=1;entryX=0;entryY=0.5;entryDx=0;entryDy=0;" parent="1" source="3" target="4" edge="1"><mxGeometry relative="1" as="geometry"/></mxCell><mxCell id="3" value="Source" style="rounded=1;whiteSpace=wrap;html=1;" parent="1" vertex="1"><mxGeometry x="230" y="99" width="120" height="60" as="geometry"/></mxCell><mxCell id="9" style="edgeStyle=orthogonalEdgeStyle;rounded=0;orthogonalLoop=1;jettySize=auto;html=1;entryX=0;entryY=0.5;entryDx=0;entryDy=0;" parent="1" source="4" target="5" edge="1"><mxGeometry relative="1" as="geometry"/></mxCell><mxCell id="4" value="Mini Transform" style="rounded=1;whiteSpace=wrap;html=1;" parent="1" vertex="1"><mxGeometry x="430" y="99" width="120" height="60" as="geometry"/></mxCell><mxCell id="18" style="edgeStyle=orthogonalEdgeStyle;rounded=0;orthogonalLoop=1;jettySize=auto;html=1;fontSize=13;" parent="1" source="5" target="15" edge="1"><mxGeometry relative="1" as="geometry"/></mxCell><mxCell id="5" value="Sink" style="rounded=1;whiteSpace=wrap;html=1;" parent="1" vertex="1"><mxGeometry x="620" y="99" width="110" height="60" as="geometry"/></mxCell><mxCell id="10" value="" style="endArrow=none;dashed=1;html=1;rounded=0;" parent="1" edge="1"><mxGeometry width="50" height="50" relative="1" as="geometry"><mxPoint x="180" y="200" as="sourcePoint"/><mxPoint x="770" y="60" as="targetPoint"/><Array as="points"><mxPoint x="180" y="60"/></Array></mxGeometry></mxCell><mxCell id="12" value="&lt;font style=&quot;font-size: 13px;&quot;&gt;EtLT-DAG&lt;/font&gt;" style="edgeLabel;html=1;align=center;verticalAlign=middle;resizable=0;points=[];" parent="10" vertex="1" connectable="0"><mxGeometry x="0.0986" relative="1" as="geometry"><mxPoint as="offset"/></mxGeometry></mxCell><mxCell id="11" value="" style="endArrow=none;dashed=1;html=1;rounded=0;" parent="1" edge="1"><mxGeometry width="50" height="50" relative="1" as="geometry"><mxPoint x="180" y="200" as="sourcePoint"/><mxPoint x="770" y="60" as="targetPoint"/><Array as="points"><mxPoint x="770" y="200"/></Array></mxGeometry></mxCell><mxCell id="13" value="" style="endArrow=none;dashed=1;html=1;rounded=0;fontSize=13;" parent="1" edge="1"><mxGeometry width="50" height="50" relative="1" as="geometry"><mxPoint x="750" y="180" as="sourcePoint"/><mxPoint x="390" y="80" as="targetPoint"/><Array as="points"><mxPoint x="390" y="180"/></Array></mxGeometry></mxCell><mxCell id="14" value="" style="endArrow=none;dashed=1;html=1;rounded=0;fontSize=13;" parent="1" edge="1"><mxGeometry width="50" height="50" relative="1" as="geometry"><mxPoint x="390" y="80" as="sourcePoint"/><mxPoint x="750" y="180" as="targetPoint"/><Array as="points"><mxPoint x="750" y="80"/></Array></mxGeometry></mxCell><mxCell id="20" style="edgeStyle=orthogonalEdgeStyle;rounded=0;orthogonalLoop=1;jettySize=auto;html=1;entryX=1;entryY=0.5;entryDx=0;entryDy=0;fontSize=13;" parent="1" source="15" target="19" edge="1"><mxGeometry relative="1" as="geometry"/></mxCell><mxCell id="15" value="DWH" style="shape=datastore;whiteSpace=wrap;html=1;fontSize=13;" parent="1" vertex="1"><mxGeometry x="760" y="270" width="60" height="60" as="geometry"/></mxCell><mxCell id="24" style="edgeStyle=orthogonalEdgeStyle;rounded=0;orthogonalLoop=1;jettySize=auto;html=1;entryX=1;entryY=0.5;entryDx=0;entryDy=0;fontSize=13;" parent="1" source="19" target="23" edge="1"><mxGeometry relative="1" as="geometry"/></mxCell><mxCell id="19" value="Transform" style="rounded=1;whiteSpace=wrap;html=1;" parent="1" vertex="1"><mxGeometry x="530" y="270" width="120" height="60" as="geometry"/></mxCell><mxCell id="21" value="" style="endArrow=none;dashed=1;html=1;rounded=0;fontSize=13;" parent="1" edge="1"><mxGeometry width="50" height="50" relative="1" as="geometry"><mxPoint x="500" y="360" as="sourcePoint"/><mxPoint x="500" y="360" as="targetPoint"/><Array as="points"><mxPoint x="500" y="240"/><mxPoint x="680" y="240"/><mxPoint x="680" y="360"/></Array></mxGeometry></mxCell><mxCell id="22" value="Transform" style="edgeLabel;html=1;align=center;verticalAlign=middle;resizable=0;points=[];fontSize=13;" parent="21" vertex="1" connectable="0"><mxGeometry x="-0.4" y="-2" relative="1" as="geometry"><mxPoint y="1" as="offset"/></mxGeometry></mxCell><mxCell id="23" value="Client" style="rounded=1;whiteSpace=wrap;html=1;" parent="1" vertex="1"><mxGeometry x="310" y="270" width="120" height="60" as="geometry"/></mxCell></root></mxGraphModel></diagram></mxfile>